<?xml version="1.0" encoding="UTF-8" standalone="no"?>
<!DOCTYPE svg PUBLIC "-//W3C//DTD SVG 1.1//EN"
 "http://www.w3.org/Graphics/SVG/1.1/DTD/svg11.dtd">
<!-- Generated by graphviz version 2.40.1 (20161225.0304)
 -->
<!-- Title: %3 Pages: 1 -->
<svg width="876pt" height="404pt"
 viewBox="0.00 0.00 876.00 404.00" xmlns="http://www.w3.org/2000/svg" xmlns:xlink="http://www.w3.org/1999/xlink">
<g id="graph0" class="graph" transform="scale(1 1) rotate(0) translate(4 400)">
<title>%3</title>
<polygon fill="#ffffff" stroke="transparent" points="-4,4 -4,-400 872.004,-400 872.004,4 -4,4"/>
<!-- 0 -->
<g id="node1" class="node">
<title>0</title>
<ellipse fill="none" stroke="#000000" cx="120.8893" cy="-378" rx="120.7786" ry="18"/>
<text text-anchor="middle" x="120.8893" y="-374.3" font-family="Times,serif" font-size="14.00" fill="#000000">(lambda col: col.str.slice(0, 5))</text>
</g>
<!-- 9 -->
<g id="node8" class="node">
<title>9</title>
<ellipse fill="none" stroke="#000000" cx="200.8893" cy="-306" rx="40.0939" ry="18"/>
<text text-anchor="middle" x="200.8893" y="-302.3" font-family="Times,serif" font-size="14.00" fill="#000000">Rename</text>
</g>
<!-- 0&#45;&gt;9 -->
<g id="edge9" class="edge">
<title>0&#45;&gt;9</title>
<path fill="none" stroke="#000000" d="M140.6646,-360.2022C151.0153,-350.8866 163.818,-339.3641 174.9541,-329.3416"/>
<polygon fill="#000000" stroke="#000000" points="177.6179,-331.653 182.7095,-322.3618 172.9351,-326.45 177.6179,-331.653"/>
</g>
<!-- 1 -->
<g id="node2" class="node">
<title>1</title>
<ellipse fill="none" stroke="#000000" cx="470.8893" cy="-162" rx="35.9954" ry="18"/>
<text text-anchor="middle" x="470.8893" y="-158.3" font-family="Times,serif" font-size="14.00" fill="#000000">LogOp</text>
</g>
<!-- 6 -->
<g id="node9" class="node">
<title>6</title>
<ellipse fill="none" stroke="#000000" cx="470.8893" cy="-90" rx="27" ry="18"/>
<text text-anchor="middle" x="470.8893" y="-86.3" font-family="Times,serif" font-size="14.00" fill="#000000">+</text>
</g>
<!-- 1&#45;&gt;6 -->
<g id="edge5" class="edge">
<title>1&#45;&gt;6</title>
<path fill="none" stroke="#000000" d="M470.8893,-143.8314C470.8893,-136.131 470.8893,-126.9743 470.8893,-118.4166"/>
<polygon fill="#000000" stroke="#000000" points="474.3894,-118.4132 470.8893,-108.4133 467.3894,-118.4133 474.3894,-118.4132"/>
</g>
<!-- 3 -->
<g id="node3" class="node">
<title>3</title>
<ellipse fill="none" stroke="#000000" cx="475.8893" cy="-234" rx="50.0912" ry="18"/>
<text text-anchor="middle" x="475.8893" y="-230.3" font-family="Times,serif" font-size="14.00" fill="#000000">FillMedian</text>
</g>
<!-- 3&#45;&gt;1 -->
<g id="edge1" class="edge">
<title>3&#45;&gt;1</title>
<path fill="none" stroke="#000000" d="M474.6276,-215.8314C474.0928,-208.131 473.4569,-198.9743 472.8627,-190.4166"/>
<polygon fill="#000000" stroke="#000000" points="476.3524,-190.1467 472.168,-180.4133 469.3693,-190.6317 476.3524,-190.1467"/>
</g>
<!-- 2 -->
<g id="node4" class="node">
<title>2</title>
<ellipse fill="none" stroke="#000000" cx="480.8893" cy="-306" rx="83.3857" ry="18"/>
<text text-anchor="middle" x="480.8893" y="-302.3" font-family="Times,serif" font-size="14.00" fill="#000000">DaysSincePublished</text>
</g>
<!-- 2&#45;&gt;3 -->
<g id="edge2" class="edge">
<title>2&#45;&gt;3</title>
<path fill="none" stroke="#000000" d="M479.6276,-287.8314C479.0928,-280.131 478.4569,-270.9743 477.8627,-262.4166"/>
<polygon fill="#000000" stroke="#000000" points="481.3524,-262.1467 477.168,-252.4133 474.3693,-262.6317 481.3524,-262.1467"/>
</g>
<!-- 4 -->
<g id="node5" class="node">
<title>4</title>
<ellipse fill="none" stroke="#000000" cx="591.8893" cy="-162" rx="67.6881" ry="18"/>
<text text-anchor="middle" x="591.8893" y="-158.3" font-family="Times,serif" font-size="14.00" fill="#000000">TargetEncoding</text>
</g>
<!-- 4&#45;&gt;6 -->
<g id="edge7" class="edge">
<title>4&#45;&gt;6</title>
<path fill="none" stroke="#000000" d="M564.1294,-145.4817C544.9753,-134.0843 519.5559,-118.9587 500.0964,-107.3794"/>
<polygon fill="#000000" stroke="#000000" points="501.7313,-104.2796 491.3479,-102.1737 498.1518,-110.2951 501.7313,-104.2796"/>
</g>
<!-- 5 -->
<g id="node6" class="node">
<title>5</title>
<ellipse fill="none" stroke="#000000" cx="339.8893" cy="-234" rx="27" ry="18"/>
<text text-anchor="middle" x="339.8893" y="-230.3" font-family="Times,serif" font-size="14.00" fill="#000000">+</text>
</g>
<!-- 10 -->
<g id="node10" class="node">
<title>10</title>
<ellipse fill="none" stroke="#000000" cx="358.8893" cy="-162" rx="48.1917" ry="18"/>
<text text-anchor="middle" x="358.8893" y="-158.3" font-family="Times,serif" font-size="14.00" fill="#000000">Categorify</text>
</g>
<!-- 5&#45;&gt;10 -->
<g id="edge10" class="edge">
<title>5&#45;&gt;10</title>
<path fill="none" stroke="#000000" d="M344.5859,-216.2022C346.6711,-208.3005 349.1753,-198.811 351.5015,-189.9959"/>
<polygon fill="#000000" stroke="#000000" points="354.9472,-190.6552 354.1147,-180.0931 348.1789,-188.8691 354.9472,-190.6552"/>
</g>
<!-- 7 -->
<g id="node7" class="node">
<title>7</title>
<ellipse fill="none" stroke="#000000" cx="339.8893" cy="-306" rx="40.0939" ry="18"/>
<text text-anchor="middle" x="339.8893" y="-302.3" font-family="Times,serif" font-size="14.00" fill="#000000">Rename</text>
</g>
<!-- 7&#45;&gt;5 -->
<g id="edge3" class="edge">
<title>7&#45;&gt;5</title>
<path fill="none" stroke="#000000" d="M339.8893,-287.8314C339.8893,-280.131 339.8893,-270.9743 339.8893,-262.4166"/>
<polygon fill="#000000" stroke="#000000" points="343.3894,-262.4132 339.8893,-252.4133 336.3894,-262.4133 343.3894,-262.4132"/>
</g>
<!-- 9&#45;&gt;5 -->
<g id="edge4" class="edge">
<title>9&#45;&gt;5</title>
<path fill="none" stroke="#000000" d="M227.3613,-292.2879C250.8294,-280.1317 285.089,-262.3858 309.6339,-249.6718"/>
<polygon fill="#000000" stroke="#000000" points="311.2529,-252.7749 318.5226,-245.0676 308.0333,-246.5593 311.2529,-252.7749"/>
</g>
<!-- 11 -->
<g id="node12" class="node">
<title>11</title>
<ellipse fill="none" stroke="#000000" cx="470.8893" cy="-18" rx="397.2296" ry="18"/>
<text text-anchor="middle" x="470.8893" y="-14.3" font-family="Times,serif" font-size="14.00" fill="#000000">output cols=[publish_time_since_published, publish_time_promo_since_published, geo_location_country...]</text>
</g>
<!-- 6&#45;&gt;11 -->
<g id="edge11" class="edge">
<title>6&#45;&gt;11</title>
<path fill="none" stroke="#000000" d="M470.8893,-71.8314C470.8893,-64.131 470.8893,-54.9743 470.8893,-46.4166"/>
<polygon fill="#000000" stroke="#000000" points="474.3894,-46.4132 470.8893,-36.4133 467.3894,-46.4133 474.3894,-46.4132"/>
</g>
<!-- 10&#45;&gt;6 -->
<g id="edge6" class="edge">
<title>10&#45;&gt;6</title>
<path fill="none" stroke="#000000" d="M383.1916,-146.3771C400.6629,-135.1455 424.2718,-119.9683 442.5927,-108.1907"/>
<polygon fill="#000000" stroke="#000000" points="444.5925,-111.0659 451.1117,-102.7142 440.8072,-105.1777 444.5925,-111.0659"/>
</g>
<!-- 8 -->
<g id="node11" class="node">
<title>8</title>
<ellipse fill="none" stroke="#000000" cx="380.8893" cy="-378" rx="120.7786" ry="18"/>
<text text-anchor="middle" x="380.8893" y="-374.3" font-family="Times,serif" font-size="14.00" fill="#000000">(lambda col: col.str.slice(0, 2))</text>
</g>
<!-- 8&#45;&gt;7 -->
<g id="edge8" class="edge">
<title>8&#45;&gt;7</title>
<path fill="none" stroke="#000000" d="M370.5432,-359.8314C365.8951,-351.6688 360.3152,-341.87 355.1975,-332.8827"/>
<polygon fill="#000000" stroke="#000000" points="358.0799,-330.8713 350.09,-323.9134 351.9969,-334.3352 358.0799,-330.8713"/>
</g>
</g>
</svg>
